<svg width="100%" height="100%" viewBox="0 0 1654 1583" version="1.1" xmlns="http://www.w3.org/2000/svg" xmlns:xlink="http://www.w3.org/1999/xlink" xml:space="preserve" xmlns:serif="http://www.serif.com/" style="fill-rule:evenodd;clip-rule:evenodd;stroke-linejoin:round;stroke-miterlimit:2;">
    <g id="Artboard1" transform="matrix(0.666667,0,0,1.7631,0,0)">
        <rect x="0" y="0" width="2481" height="897.566" style="fill:none;" />
        <clipPath id="_clip1">
            <rect x="0" y="0" width="2481" height="897.566" />
        </clipPath>
        <g clip-path="url(#_clip1)">
            <g transform="matrix(0.969141,0,0,0.366453,-7.54397e-14,-1.56889e-14)">
                <circle cx="1226.75" cy="53.25" r="53.25" style="fill-opacity:0.1;" />
                <circle cx="411.007" cy="1178.03" r="91.007" style="fill-opacity:0.1;" />
                <circle cx="243.59" cy="1259.59" r="76.41" style="fill-opacity:0.1;" />
                <circle cx="148.225" cy="1052.28" r="148.225" style="fill-opacity:0.1;" />
                <circle cx="697.371" cy="560.316" r="115.923" style="fill-opacity:0.1;" />
                <circle cx="394.17" cy="685.35" r="189.511" style="fill-opacity:0.1;" />
                <circle cx="704.616" cy="826.21" r="144.795" style="fill-opacity:0.1;" />
                <path d="M0,0L1280,111.333L1280,0L0,0Z" style="fill-opacity:0.1;stroke:black;stroke-width:1.55px;" />
                <path d="M320,1113.33L320,1336L1280,779.333L320,1113.33Z" style="fill-opacity:0.1;stroke:black;stroke-width:1.55px;" />
                <path d="M0,1336L320,1336L320,1113.33L0,1336Z" style="fill-opacity:0.1;stroke:black;stroke-width:1.55px;" />
                <path d="M0,0L0,1336L320,1113.33L0,0Z" style="fill-opacity:0.1;stroke:black;stroke-width:1.55px;" />
                <path d="M0,0L640,668L1280,779.333L0,0Z" style="fill-opacity:0.1;stroke:black;stroke-width:1.55px;" />
                <path d="M0,0L320,1113.33L640,668L0,0Z" style="fill-opacity:0.1;stroke:black;stroke-width:1.55px;" />
                <path d="M320,1113.33L640,668L1280,779.333L320,1113.33Z" style="fill-opacity:0.1;stroke:black;stroke-width:1.55px;" />
            </g>
            <g transform="matrix(0.969141,0,0,0.366453,-1240.5,489.592)">
                <circle cx="1583.46" cy="878.983" r="150.184" style="fill-opacity:0.1;" />
            </g>
            <g transform="matrix(0.969141,0,0,0.366453,-1240.5,489.592)">
                <circle cx="2057.91" cy="792.796" r="163.182" style="fill-opacity:0.1;" />
            </g>
            <g transform="matrix(0.969141,0,0,0.366453,-1240.5,489.592)">
                <circle cx="1751.89" cy="1035.44" r="77.895" style="fill-opacity:0.1;" />
            </g>
            <g transform="matrix(0.969141,0,0,0.366453,-1240.5,489.592)">
                <path d="M1280,779.333L1600,1113.33L1920,668L1280,779.333Z" style="fill-opacity:0.1;stroke:black;stroke-width:1.55px;" />
            </g>
            <g transform="matrix(0.969141,0,0,0.366453,-1240.5,489.592)">
                <path d="M1813.33,1113.33L1920,668L3840,0L1813.33,1113.33Z" style="fill-opacity:0.1;stroke:black;stroke-width:1.55px;" />
            </g>
            <g transform="matrix(0.969141,0,0,0.366453,-1240.5,489.592)">
                <path d="M1600,1113.33L1813.33,1113.33L1920,668L1600,1113.33Z" style="fill-opacity:0.1;stroke:black;stroke-width:1.55px;" />
            </g>
        </g>
    </g>
</svg>